<svg t="1718436661627" class="icon" viewBox="0 0 1024 1024" version="1.1" xmlns="http://www.w3.org/2000/svg" p-id="4061" width="32" height="32"><path d="M67.7 131.7H955v597.6H67.7zM303.7 806.2h397.2v51.5H303.7zM476.5 729.3H528v76.9h-51.5z" fill="" p-id="4062"></path><path d="M197.3 521.1l-0.5-29.6 155.7-129.7" fill="#FFFFFF" p-id="4063"></path><path d="M352.5 361.8v29.5L196.8 521.1M404.4 365.4l129.8 129.7v26L404.4 391.3zM586.1 495.1l233.5-181.6v25.9L586.1 521.1z" fill="#FFFFFF" p-id="4064"></path><path d="M845.6 339.4c14.3 0 26-11.6 26-26 0-14.3-11.6-26-26-26s-26 11.6-26 26 11.6 26 26 26z m0 26c28.7 0 51.9-23.2 51.9-51.9s-23.2-51.9-51.9-51.9-51.9 23.2-51.9 51.9 23.2 51.9 51.9 51.9zM560.1 547c14.3 0 26-11.6 26-26s-11.6-26-26-26c-14.3 0-26 11.6-26 26s11.7 26 26 26z m0 26c28.7 0 51.9-23.2 51.9-51.9s-23.2-51.9-51.9-51.9-51.9 23.2-51.9 51.9 23.2 51.9 51.9 51.9zM378.5 391.3c14.3 0 26-11.6 26-26 0-14.3-11.6-26-26-26s-26 11.6-26 26 11.6 26 26 26z m0 26c28.7 0 51.9-23.2 51.9-51.9s-23.2-51.9-51.9-51.9-51.9 23.2-51.9 51.9c0 28.6 23.2 51.9 51.9 51.9zM170.9 547c14.3 0 26-11.6 26-26s-11.6-26-26-26c-14.3 0-26 11.6-26 26s11.6 26 26 26z m0 26c28.7 0 51.9-23.2 51.9-51.9s-23.2-51.9-51.9-51.9-51.9 23.2-51.9 51.9 23.2 51.9 51.9 51.9z" fill="#FFFFFF" p-id="4065"></path></svg>