<svg t="1718437436894" class="icon" viewBox="0 0 1024 1024" version="1.1" xmlns="http://www.w3.org/2000/svg" p-id="13833" width="32" height="32"><path d="M283.52 133.76H98.56c-17.92 0-32 14.08-32 32v692.48c0 17.92 14.08 32 32 32h184.96c17.92 0 32-14.08 32-32V165.76c0-17.92-14.72-32-32-32z m-32 692.48H130.56V197.76h120.96v628.48zM956.16 795.52l-177.28-586.24a32 32 0 0 0-39.68-21.12l-150.4 45.44V165.76c0-17.92-14.08-32-32-32H371.84c-17.92 0-32 14.08-32 32v692.48c0 17.92 14.08 32 32 32H556.8c17.92 0 32-14.08 32-32V440.32l129.28 426.88a32 32 0 0 0 39.68 21.76l177.28-53.76c8.32-2.56 14.72-7.68 19.2-15.36s4.48-16.64 1.92-24.32z m-431.36 30.72H403.84V197.76H524.8v628.48z m245.12-8.32l-158.72-524.8 115.84-35.2 158.72 524.8-115.84 35.2z" fill="#2F3E5A" p-id="13834"></path></svg>