<svg t="1718437366441" class="icon" viewBox="0 0 1024 1024" version="1.1" xmlns="http://www.w3.org/2000/svg" p-id="12827" width="32" height="32"><path d="M694.857143 234.057143m0 43.885714l0 0q0 43.885714-43.885714 43.885714l-424.228572 0q-43.885714 0-43.885714-43.885714l0 0q0-43.885714 43.885714-43.885714l424.228572 0q43.885714 0 43.885714 43.885714Z" fill="#BFCBD9" p-id="12828"></path><path d="M475.428571 468.114286m0 43.885714l0 0q0 43.885714-43.885714 43.885714l-204.8 0q-43.885714 0-43.885714-43.885714l0 0q0-43.885714 43.885714-43.885714l204.8 0q43.885714 0 43.885714 43.885714Z" fill="#BFCBD9" p-id="12829"></path><path d="M585.142857 855.771429a190.171429 190.171429 0 1 1 268.434286 0 188.708571 188.708571 0 0 1-268.434286 0z m206.262857-206.994286a102.4 102.4 0 0 0-146.285714 146.285714 102.4 102.4 0 0 0 146.285714-146.285714z" fill="#BFCBD9" p-id="12830"></path><path d="M1042.226345 980.162573m-31.031886 31.031886l0 0q-31.031886 31.031886-62.063773 0l-155.15943-155.159431q-31.031886-31.031886 0-62.063772l0 0q31.031886-31.031886 62.063772 0l155.159431 155.15943q31.031886 31.031886 0 62.063773Z" fill="#BFCBD9" p-id="12831"></path><path d="M365.714286 980.114286m-43.885715 0a43.885714 43.885714 0 1 0 87.771429 0 43.885714 43.885714 0 1 0-87.771429 0Z" fill="#BFCBD9" p-id="12832"></path><path d="M833.828571 365.714286m-43.885714 0a43.885714 43.885714 0 1 0 87.771429 0 43.885714 43.885714 0 1 0-87.771429 0Z" fill="#BFCBD9" p-id="12833"></path><path d="M804.571429 0H73.142857a73.142857 73.142857 0 0 0-73.142857 73.142857v877.714286a73.142857 73.142857 0 0 0 73.142857 73.142857h292.571429v-87.771429H87.771429V87.771429h702.171428V365.714286H877.714286V73.142857a73.142857 73.142857 0 0 0-73.142857-73.142857z" fill="#BFCBD9" p-id="12834"></path></svg>