<svg t="1725280364378" class="icon" viewBox="0 0 1024 1024" version="1.1" xmlns="http://www.w3.org/2000/svg" p-id="10639" width="32" height="32"><path d="M394.737 443.357c-5.149 0-10.297-1.716-14.873-4.003-8.579-5.149-13.155-14.299-13.155-24.025v-204.782c0-79.511 60.633-144.146 134.423-144.146h30.89c74.361 0 134.423 64.639 134.423 144.146v204.209c0 9.726-5.149 18.876-13.155 24.025-8.579 5.149-18.876 5.721-27.457 1.146-34.319-16.589-70.929-25.169-109.255-25.169-38.325 0-74.935 8.579-109.255 25.169-4.003 2.288-8.579 3.434-12.585 3.434zM516.003 358.128c32.034 0 63.493 5.149 93.237 14.299v-161.881c0-48.048-34.894-87.519-77.793-87.519h-30.89c-42.901 0-77.793 39.47-77.793 87.519v162.453c29.744-9.726 61.205-14.873 93.237-14.873z" p-id="10640"></path><path d="M516.003 966.181c-167.601 0-303.741-136.14-303.741-303.741s136.14-303.741 303.741-303.741c167.601 0 303.741 136.14 303.741 303.741s-136.14 303.741-303.741 303.741zM516.003 414.757c-136.14 0-247.11 110.973-247.11 247.11s110.973 247.11 247.11 247.11c136.14 0 247.11-110.973 247.11-247.11s-110.399-247.11-247.11-247.11z" p-id="10641"></path><path d="M512.571 563.483c46.906 0 84.657 37.754 84.657 84.657 0 36.038-22.881 67.498-54.915 79.511v70.359c0 14.299-11.439 25.741-25.741 25.741h-8.579c-14.299 0-25.741-11.439-25.741-25.741v-70.359c-32.034-12.014-54.915-42.901-54.915-79.511 0.571-46.333 38.325-84.657 85.232-84.657z" p-id="10642"></path></svg>