<svg t="1728522654858" class="icon" viewBox="0 0 1024 1024" version="1.1" xmlns="http://www.w3.org/2000/svg" p-id="4268" width="32" height="32"><path d="M896 403.2H777.6V297.6c0-147.2-121.6-268.8-268.8-268.8C361.6 28.8 240 150.4 240 297.6v105.6H124.8c-38.4 0-70.4 32-70.4 70.4v444.8c0 38.4 32 70.4 70.4 70.4h764.8c38.4 0 70.4-32 70.4-70.4V473.6c6.4-38.4-25.6-70.4-64-70.4zM332.8 300.8c0-99.2 80-179.2 179.2-179.2s179.2 80 179.2 179.2v105.6H336V300.8z m544 601.6H147.2V492.8h729.6v409.6z" p-id="4269"></path><path d="M508.8 835.2c73.6 0 134.4-60.8 134.4-134.4 0-73.6-60.8-134.4-134.4-134.4s-134.4 60.8-134.4 134.4c0 73.6 60.8 134.4 134.4 134.4z m0-176c25.6 0 44.8 19.2 44.8 44.8 0 25.6-19.2 44.8-44.8 44.8-25.6 0-44.8-19.2-44.8-44.8 0-25.6 22.4-44.8 44.8-44.8z" p-id="4270"></path></svg>