<svg t="1718437276624" class="icon" viewBox="0 0 1024 1024" version="1.1" xmlns="http://www.w3.org/2000/svg" p-id="11597" width="32" height="32"><path d="M627.2 384c-7.2 0-12 2.4-15.2 6.4-3.2 4.8-7.2 12-11.2 21.6L516.8 626.4c-4.8 12-8 17.6-10.4 16.8-2.4-0.8-4.8-4.8-7.2-12l-78.4-196.8c-5.6-13.6-10.4-24.8-13.6-32-3.2-7.2-7.2-12-11.2-15.2-6.4-4-12.8-4.8-19.2-2.4-6.4 2.4-10.4 6.4-12.8 12-2.4 5.6-4 15.2-4 28.8V664c0 7.2 1.6 12.8 4 16 2.4 3.2 6.4 4.8 11.2 4.8 6.4 0.8 10.4-0.8 13.6-4 2.4-3.2 4-8.8 4-17.6V451.2l76 189.6c5.6 14.4 11.2 24.8 16 31.2 4.8 5.6 11.2 8.8 20.8 9.6 9.6 0.8 16.8-2.4 22.4-9.6s10.4-16 15.2-28l74.4-191.2V664c0 4.8 1.6 9.6 4 13.6 3.2 4.8 6.4 6.4 11.2 6.4 4.8 0 8.8-2.4 12-6.4s4.8-8.8 4.8-13.6V424c0-12-1.6-21.6-5.6-28.8-3.2-7.2-8.8-11.2-16.8-11.2z" p-id="11598"></path><path d="M904 281.6c0-1.6-0.8-3.2-1.6-4.8l-0.8-0.8c-0.8-1.6-1.6-3.2-3.2-4L696 72c-1.6-1.6-2.4-2.4-4-3.2l-0.8-0.8c-1.6-0.8-3.2-1.6-4.8-1.6H143.2c-11.2 0-20 8.8-20 20v843.2c0 11.2 8.8 20 20 20h741.6c11.2 0 20-8.8 20-20V285.6c0-0.8 0-2.4-0.8-4zM702.4 133.6l12.8 12.8 120.8 120H702.4V133.6z m-539.2 776V105.6h499.2v180c0 11.2 8.8 20 20 20h182.4v603.2H163.2z" p-id="11599"></path></svg>