<svg t="1718436716161" class="icon" viewBox="0 0 1024 1024" version="1.1" xmlns="http://www.w3.org/2000/svg" p-id="5038" width="32" height="32"><path d="M768 146.285714C665.6 146.285714 585.142857 124.342857 519.314286 73.142857 453.485714 29.257143 387.657143 0 285.257143 0 190.171429 0 117.028571 29.257143 73.142857 58.514286v928.914285c0 21.942857 14.628571 36.571429 36.571429 36.571429s36.571429-14.628571 36.571428-36.571429V607.085714c43.885714-14.628571 87.771429-21.942857 138.971429-21.942857 131.657143 0 212.114286 43.885714 277.942857 87.771429 58.514286 43.885714 124.342857 58.514286 204.8 58.514285 73.142857 0 138.971429-14.628571 182.857143-43.885714V109.714286c-51.2 21.942857-117.028571 36.571429-182.857143 36.571428zM877.714286 643.657143c-29.257143 7.314286-65.828571 14.628571-109.714286 14.628571-65.828571 0-117.028571-14.628571-160.914286-43.885714C533.942857 563.2 438.857143 512 285.257143 512c-43.885714 0-95.085714 7.314286-138.971429 21.942857V102.4c29.257143-14.628571 80.457143-29.257143 138.971429-29.257143 80.457143 0 131.657143 21.942857 190.171428 58.514286 87.771429 58.514286 175.542857 87.771429 292.571429 87.771428 36.571429 0 73.142857 0 109.714286-7.314285v431.542857z" p-id="5039"></path></svg>