<svg t="1719368119519" class="icon" viewBox="0 0 1024 1024" version="1.1" xmlns="http://www.w3.org/2000/svg" p-id="4267" width="32" height="32"><path d="M170.057143 290.816v489.179429h568.832V853.333333H206.336C146.236952 853.333333 97.52381 804.08381 97.52381 743.326476v-452.510476h72.533333zM853.333333 170.666667a73.142857 73.142857 0 0 1 73.142857 73.142857v414.47619a73.142857 73.142857 0 0 1-73.142857 73.142857H292.571429a73.142857 73.142857 0 0 1-73.142858-73.142857V243.809524a73.142857 73.142857 0 0 1 73.142858-73.142857h560.761904z m0 73.142857H292.571429v414.47619h560.761904V243.809524z m-382.195809 90.550857l120.978286 120.929524 51.078095-51.078095 155.160381 155.16038-51.102476 51.102477-103.326477-103.375238-51.102476 51.151238-121.392762-121.417143-87.552 86.113524-51.833905-51.833905 139.093334-136.752762zM755.809524 292.571429a48.761905 48.761905 0 1 1 0 97.523809 48.761905 48.761905 0 0 1 0-97.523809z" p-id="4268"></path></svg>